<mxfile host="app.diagrams.net" modified="2023-05-16T19:53:25.220Z" agent="Mozilla/5.0 (Windows NT 10.0; Win64; x64) AppleWebKit/537.36 (KHTML, like Gecko) Chrome/113.0.0.0 Safari/537.36" etag="mWVEo7kUJSc4Fu9l_oiv" version="21.2.9" type="device">
  <diagram name="PÃ¡gina-1" id="BHI88ZndC61EMu_BznhN">
    <mxGraphModel dx="2206" dy="1785" grid="1" gridSize="10" guides="1" tooltips="1" connect="1" arrows="1" fold="1" page="1" pageScale="1" pageWidth="827" pageHeight="1169" math="0" shadow="0">
      <root>
        <mxCell id="0" />
        <mxCell id="1" parent="0" />
        <mxCell id="qLr8i8mf7fz0wRjPMqTa-39" style="edgeStyle=orthogonalEdgeStyle;rounded=0;orthogonalLoop=1;jettySize=auto;html=1;exitX=0.5;exitY=1;exitDx=0;exitDy=0;entryX=0.5;entryY=0;entryDx=0;entryDy=0;" edge="1" parent="1" source="qLr8i8mf7fz0wRjPMqTa-1" target="qLr8i8mf7fz0wRjPMqTa-36">
          <mxGeometry relative="1" as="geometry" />
        </mxCell>
        <mxCell id="qLr8i8mf7fz0wRjPMqTa-1" value="shared.module&lt;br&gt;&lt;br&gt;* Exportar modulos&amp;nbsp;" style="whiteSpace=wrap;html=1;aspect=fixed;" vertex="1" parent="1">
          <mxGeometry x="395" y="340" width="120" height="120" as="geometry" />
        </mxCell>
        <mxCell id="qLr8i8mf7fz0wRjPMqTa-6" style="edgeStyle=orthogonalEdgeStyle;rounded=0;orthogonalLoop=1;jettySize=auto;html=1;exitX=1;exitY=0.5;exitDx=0;exitDy=0;entryX=0;entryY=0.5;entryDx=0;entryDy=0;" edge="1" parent="1" source="qLr8i8mf7fz0wRjPMqTa-2" target="qLr8i8mf7fz0wRjPMqTa-3">
          <mxGeometry relative="1" as="geometry" />
        </mxCell>
        <mxCell id="qLr8i8mf7fz0wRjPMqTa-38" style="edgeStyle=orthogonalEdgeStyle;rounded=0;orthogonalLoop=1;jettySize=auto;html=1;exitX=1;exitY=0.5;exitDx=0;exitDy=0;entryX=0;entryY=0.5;entryDx=0;entryDy=0;" edge="1" parent="1" source="qLr8i8mf7fz0wRjPMqTa-2" target="qLr8i8mf7fz0wRjPMqTa-29">
          <mxGeometry relative="1" as="geometry" />
        </mxCell>
        <mxCell id="qLr8i8mf7fz0wRjPMqTa-2" value="components" style="rounded=0;whiteSpace=wrap;html=1;" vertex="1" parent="1">
          <mxGeometry x="160" y="160" width="120" height="40" as="geometry" />
        </mxCell>
        <mxCell id="qLr8i8mf7fz0wRjPMqTa-3" value="sidebar.component.html" style="rounded=1;whiteSpace=wrap;html=1;" vertex="1" parent="1">
          <mxGeometry x="360" y="150" width="190" height="60" as="geometry" />
        </mxCell>
        <mxCell id="qLr8i8mf7fz0wRjPMqTa-26" style="edgeStyle=orthogonalEdgeStyle;rounded=0;orthogonalLoop=1;jettySize=auto;html=1;exitX=1;exitY=1;exitDx=0;exitDy=0;exitPerimeter=0;entryX=0;entryY=0;entryDx=0;entryDy=30;entryPerimeter=0;" edge="1" parent="1" source="qLr8i8mf7fz0wRjPMqTa-15" target="qLr8i8mf7fz0wRjPMqTa-17">
          <mxGeometry relative="1" as="geometry" />
        </mxCell>
        <mxCell id="qLr8i8mf7fz0wRjPMqTa-44" style="edgeStyle=orthogonalEdgeStyle;rounded=0;orthogonalLoop=1;jettySize=auto;html=1;exitX=0;exitY=0;exitDx=120;exitDy=50;exitPerimeter=0;entryX=0;entryY=0;entryDx=0;entryDy=30;entryPerimeter=0;" edge="1" parent="1" source="qLr8i8mf7fz0wRjPMqTa-15" target="qLr8i8mf7fz0wRjPMqTa-43">
          <mxGeometry relative="1" as="geometry" />
        </mxCell>
        <mxCell id="qLr8i8mf7fz0wRjPMqTa-15" value="Carpeta shared" style="shape=cube;whiteSpace=wrap;html=1;boundedLbl=1;backgroundOutline=1;darkOpacity=0.05;darkOpacity2=0.1;fillColor=#67AB9F;" vertex="1" parent="1">
          <mxGeometry x="-200" width="120" height="80" as="geometry" />
        </mxCell>
        <mxCell id="qLr8i8mf7fz0wRjPMqTa-28" style="edgeStyle=orthogonalEdgeStyle;rounded=0;orthogonalLoop=1;jettySize=auto;html=1;exitX=0;exitY=0;exitDx=120;exitDy=50;exitPerimeter=0;entryX=0;entryY=0.5;entryDx=0;entryDy=0;" edge="1" parent="1" source="qLr8i8mf7fz0wRjPMqTa-17" target="qLr8i8mf7fz0wRjPMqTa-2">
          <mxGeometry relative="1" as="geometry" />
        </mxCell>
        <mxCell id="qLr8i8mf7fz0wRjPMqTa-17" value="page" style="shape=cube;whiteSpace=wrap;html=1;boundedLbl=1;backgroundOutline=1;darkOpacity=0.05;darkOpacity2=0.1;fillColor=#67AB9F;" vertex="1" parent="1">
          <mxGeometry y="80" width="120" height="80" as="geometry" />
        </mxCell>
        <mxCell id="qLr8i8mf7fz0wRjPMqTa-30" style="edgeStyle=orthogonalEdgeStyle;rounded=0;orthogonalLoop=1;jettySize=auto;html=1;exitX=0.5;exitY=1;exitDx=0;exitDy=0;entryX=0.5;entryY=0;entryDx=0;entryDy=0;" edge="1" parent="1" source="qLr8i8mf7fz0wRjPMqTa-29" target="qLr8i8mf7fz0wRjPMqTa-1">
          <mxGeometry relative="1" as="geometry" />
        </mxCell>
        <mxCell id="qLr8i8mf7fz0wRjPMqTa-29" value="sidebar.component.ts&lt;br&gt;&lt;br&gt;selector&lt;span style=&quot;border-color: var(--border-color); font-family: Consolas, &amp;quot;Courier New&amp;quot;, monospace; font-size: 14px; color: rgb(156, 220, 254);&quot;&gt;:&lt;/span&gt;&lt;span style=&quot;color: rgb(212, 212, 212); font-family: Consolas, &amp;quot;Courier New&amp;quot;, monospace; font-size: 14px; background-color: rgb(30, 30, 30);&quot;&gt;&amp;nbsp;&lt;/span&gt;&lt;span style=&quot;border-color: var(--border-color); font-family: Consolas, &amp;quot;Courier New&amp;quot;, monospace; font-size: 14px; color: rgb(206, 145, 120);&quot;&gt;&#39;app-sidebar&#39;&lt;/span&gt;" style="rounded=1;whiteSpace=wrap;html=1;" vertex="1" parent="1">
          <mxGeometry x="360" y="240" width="190" height="60" as="geometry" />
        </mxCell>
        <mxCell id="qLr8i8mf7fz0wRjPMqTa-33" style="edgeStyle=orthogonalEdgeStyle;rounded=0;orthogonalLoop=1;jettySize=auto;html=1;exitX=0;exitY=0;exitDx=120;exitDy=20;exitPerimeter=0;entryX=0.002;entryY=0.539;entryDx=0;entryDy=0;entryPerimeter=0;" edge="1" parent="1" source="qLr8i8mf7fz0wRjPMqTa-31" target="qLr8i8mf7fz0wRjPMqTa-32">
          <mxGeometry relative="1" as="geometry" />
        </mxCell>
        <mxCell id="qLr8i8mf7fz0wRjPMqTa-31" value="Carpeta gifs" style="shape=cube;whiteSpace=wrap;html=1;boundedLbl=1;backgroundOutline=1;darkOpacity=0.05;darkOpacity2=0.1;fillColor=#EA6B66;" vertex="1" parent="1">
          <mxGeometry x="-170" y="280" width="120" height="80" as="geometry" />
        </mxCell>
        <mxCell id="qLr8i8mf7fz0wRjPMqTa-35" style="edgeStyle=orthogonalEdgeStyle;rounded=0;orthogonalLoop=1;jettySize=auto;html=1;exitX=0;exitY=0;exitDx=120;exitDy=50;exitPerimeter=0;entryX=0;entryY=0.5;entryDx=0;entryDy=0;" edge="1" parent="1" source="qLr8i8mf7fz0wRjPMqTa-32" target="qLr8i8mf7fz0wRjPMqTa-34">
          <mxGeometry relative="1" as="geometry" />
        </mxCell>
        <mxCell id="qLr8i8mf7fz0wRjPMqTa-32" value="components" style="shape=cube;whiteSpace=wrap;html=1;boundedLbl=1;backgroundOutline=1;darkOpacity=0.05;darkOpacity2=0.1;fillColor=#EA6B66;" vertex="1" parent="1">
          <mxGeometry y="300" width="120" height="80" as="geometry" />
        </mxCell>
        <mxCell id="qLr8i8mf7fz0wRjPMqTa-34" value="components" style="rounded=0;whiteSpace=wrap;html=1;fillColor=#EA6B66;" vertex="1" parent="1">
          <mxGeometry x="160" y="390" width="120" height="40" as="geometry" />
        </mxCell>
        <mxCell id="qLr8i8mf7fz0wRjPMqTa-36" value="app.component.html" style="swimlane;whiteSpace=wrap;html=1;" vertex="1" parent="1">
          <mxGeometry x="305" y="560" width="300" height="250" as="geometry" />
        </mxCell>
        <mxCell id="qLr8i8mf7fz0wRjPMqTa-37" value="&lt;div style=&quot;color: rgb(212, 212, 212); background-color: rgb(30, 30, 30); font-family: Consolas, &amp;quot;Courier New&amp;quot;, monospace; font-size: 14px; line-height: 19px;&quot;&gt;&lt;div&gt;&amp;lt;&lt;span style=&quot;color: #569cd6;&quot;&gt;h1&lt;/span&gt;&lt;span style=&quot;color: #808080;&quot;&gt;&amp;gt;&lt;/span&gt;Gifs App&lt;span style=&quot;color: #808080;&quot;&gt;&amp;lt;/&lt;/span&gt;&lt;span style=&quot;color: #569cd6;&quot;&gt;h1&lt;/span&gt;&lt;span style=&quot;color: #808080;&quot;&gt;&amp;gt;&lt;/span&gt;&lt;/div&gt;&lt;br&gt;&lt;div&gt;&lt;span style=&quot;color: #808080;&quot;&gt;&amp;lt;&lt;/span&gt;&lt;span style=&quot;color: #569cd6;&quot;&gt;div&lt;/span&gt; &lt;span style=&quot;color: #9cdcfe;&quot;&gt;class&lt;/span&gt;=&lt;span style=&quot;color: #ce9178;&quot;&gt;&quot;d-flex&quot;&lt;/span&gt;&lt;span style=&quot;color: #808080;&quot;&gt;&amp;gt;&lt;/span&gt;&lt;/div&gt;&lt;div&gt;&amp;nbsp; &lt;span style=&quot;color: #6a9955;&quot;&gt;&amp;lt;!-- SideBar --&amp;gt;&lt;/span&gt;&lt;/div&gt;&lt;div&gt;&amp;nbsp; &lt;span style=&quot;color: #808080;&quot;&gt;&amp;lt;&lt;/span&gt;&lt;span style=&quot;color: #569cd6;&quot;&gt;app-sidebar&lt;/span&gt;&lt;span style=&quot;color: #808080;&quot;&gt;&amp;gt;&amp;lt;/&lt;/span&gt;&lt;span style=&quot;color: #569cd6;&quot;&gt;app-sidebar&lt;/span&gt;&lt;span style=&quot;color: #808080;&quot;&gt;&amp;gt;&lt;/span&gt;&lt;/div&gt;&lt;br&gt;&lt;div&gt;&amp;nbsp; &lt;span style=&quot;color: #6a9955;&quot;&gt;&amp;lt;!-- Home Page --&amp;gt;&lt;/span&gt;&lt;/div&gt;&lt;div&gt;&lt;span style=&quot;color: #808080;&quot;&gt;&amp;lt;/&lt;/span&gt;&lt;span style=&quot;color: #569cd6;&quot;&gt;div&lt;/span&gt;&lt;span style=&quot;color: #808080;&quot;&gt;&amp;gt;&lt;/span&gt;&lt;/div&gt;&lt;/div&gt;" style="text;html=1;align=center;verticalAlign=middle;resizable=0;points=[];autosize=1;strokeColor=none;fillColor=none;" vertex="1" parent="qLr8i8mf7fz0wRjPMqTa-36">
          <mxGeometry x="25" y="40" width="250" height="170" as="geometry" />
        </mxCell>
        <mxCell id="qLr8i8mf7fz0wRjPMqTa-42" style="edgeStyle=orthogonalEdgeStyle;rounded=0;orthogonalLoop=1;jettySize=auto;html=1;exitX=0;exitY=0.5;exitDx=0;exitDy=0;entryX=1;entryY=0.5;entryDx=0;entryDy=0;" edge="1" parent="1" source="qLr8i8mf7fz0wRjPMqTa-41" target="qLr8i8mf7fz0wRjPMqTa-36">
          <mxGeometry relative="1" as="geometry" />
        </mxCell>
        <mxCell id="qLr8i8mf7fz0wRjPMqTa-41" value="app.module&lt;br&gt;&lt;br&gt;* Importar Modulos&amp;nbsp;" style="whiteSpace=wrap;html=1;aspect=fixed;" vertex="1" parent="1">
          <mxGeometry x="680" y="625" width="120" height="120" as="geometry" />
        </mxCell>
        <mxCell id="qLr8i8mf7fz0wRjPMqTa-47" style="edgeStyle=orthogonalEdgeStyle;rounded=0;orthogonalLoop=1;jettySize=auto;html=1;exitX=0;exitY=0;exitDx=120;exitDy=50;exitPerimeter=0;entryX=0;entryY=0.5;entryDx=0;entryDy=0;" edge="1" parent="1" source="qLr8i8mf7fz0wRjPMqTa-43" target="qLr8i8mf7fz0wRjPMqTa-45">
          <mxGeometry relative="1" as="geometry" />
        </mxCell>
        <mxCell id="qLr8i8mf7fz0wRjPMqTa-43" value="components" style="shape=cube;whiteSpace=wrap;html=1;boundedLbl=1;backgroundOutline=1;darkOpacity=0.05;darkOpacity2=0.1;fillColor=#67AB9F;" vertex="1" parent="1">
          <mxGeometry y="-30" width="120" height="80" as="geometry" />
        </mxCell>
        <mxCell id="qLr8i8mf7fz0wRjPMqTa-45" value="search-box.component.ts" style="rounded=0;whiteSpace=wrap;html=1;" vertex="1" parent="1">
          <mxGeometry x="155" y="40" width="150" height="40" as="geometry" />
        </mxCell>
      </root>
    </mxGraphModel>
  </diagram>
</mxfile>
